# xmcd CD database file
#
# Track frame offsets:
#	150
#	15482
#	29350
#	42566
#	56159
#	70511
#	83750
#	95996
#	107555
#	117862
#	132073
#	143576
#	156154
#	168763
#	182280
#	196839
#	210928
#
# Disc length: 2966 seconds
#
# Revision: 3
# Processed by: cddbd v1.5.2PL0 Copyright (c) Steve Scherf et al.
# Submitted via: CDex 1.51
#
DISCID=d50b9411,e50b9411
DTITLE=Muddy Waters - Country Blues
DYEAR=2003
DGENRE=Blues
TTITLE0=Country Blues
TTITLE1=I Be's Troubled
TTITLE2=Burr Clover Farm Blues
TTITLE3=Take A Walk With Me
TTITLE4=Burr Clover Blues
TTITLE5=Walkin' Blues
TTITLE6=I Can't Be Satisfied
TTITLE7=Gypsy Woman
TTITLE8=Mean Red Spider
TTITLE9=I Feel Like Going Home
TTITLE10=Little Anna Mae
TTITLE11=Train Fare Home Blues
TTITLE12=Little Geneva
TTITLE13=Rollin' And Tumblin'
TTITLE14=Streamline Woman
TTITLE15=Rolling Stone
TTITLE16=You Gonna Miss Me
EXTD=YEAR: 2003
EXTT0=
EXTT1=
EXTT2=
EXTT3=
EXTT4=
EXTT5=
EXTT6=
EXTT7=
EXTT8=
EXTT9=
EXTT10=
EXTT11=
EXTT12=
EXTT13=
EXTT14=
EXTT15=
EXTT16=
PLAYORDER=
